<?xml version="1.0" encoding="UTF-8" standalone="no"?>
<!-- Created with Inkscape (http://www.inkscape.org/) -->

<svg
   xmlns:dc="http://purl.org/dc/elements/1.1/"
   xmlns:cc="http://creativecommons.org/ns#"
   xmlns:rdf="http://www.w3.org/1999/02/22-rdf-syntax-ns#"
   xmlns:svg="http://www.w3.org/2000/svg"
   xmlns="http://www.w3.org/2000/svg"
   xmlns:sodipodi="http://sodipodi.sourceforge.net/DTD/sodipodi-0.dtd"
   xmlns:inkscape="http://www.inkscape.org/namespaces/inkscape"
   width="16px"
   height="16px"
   id="svg4427"
   version="1.1"
   inkscape:version="0.48.2 r9819"
   sodipodi:docname="favicon.svg"
   inkscape:export-filename="/home/mihai/programs/src/git/xmpplist/static/img/favicon.png"
   inkscape:export-xdpi="90"
   inkscape:export-ydpi="90">
  <defs
     id="defs4429" />
  <sodipodi:namedview
     id="base"
     pagecolor="#ffffff"
     bordercolor="#666666"
     borderopacity="1.0"
     inkscape:pageopacity="0.0"
     inkscape:pageshadow="2"
     inkscape:zoom="1.4142136"
     inkscape:cx="15.400646"
     inkscape:cy="-0.23463891"
     inkscape:current-layer="layer1"
     showgrid="true"
     inkscape:grid-bbox="true"
     inkscape:document-units="px"
     inkscape:window-width="471"
     inkscape:window-height="454"
     inkscape:window-x="723"
     inkscape:window-y="344"
     inkscape:window-maximized="0" />
  <metadata
     id="metadata4432">
    <rdf:RDF>
      <cc:Work
         rdf:about="">
        <dc:format>image/svg+xml</dc:format>
        <dc:type
           rdf:resource="http://purl.org/dc/dcmitype/StillImage" />
        <dc:title></dc:title>
      </cc:Work>
    </rdf:RDF>
  </metadata>
  <g
     id="layer1"
     inkscape:label="Layer 1"
     inkscape:groupmode="layer">
    <path
       style="fill:#000000;fill-opacity:0.46766166;fill-rule:nonzero;stroke:none"
       d="M 2.8068425,0.1049898 2.5842549,0.68467029 C 1.9115554,2.4386192 1.8572444,5.7948986 2.0265648,9.3725576 c 0.1865446,3.9414524 0.057733,5.6973994 0.1315871,5.7631604 0.15724,0.140008 1.2296031,0.479764 2.0223899,0.639535 0.4569645,0.09209 1.4414479,0.20422 2.1877398,0.248884 0.746292,0.04465 1.7012262,0.06594 2.1209662,0.04727 2.7451672,-0.122239 4.8607902,-0.220477 4.9491812,-0.274601 0.07046,-0.04313 0.775657,-0.279101 0.700707,-0.926054 -0.17803,-1.537289 -0.295937,-3.713399 0.309128,-7.8095892 0.086,-0.5822037 0.180887,-1.1797918 0.209871,-1.3294874 C 14.709661,5.4656533 14.545602,4.9185009 14.215577,5.0160729 10.596834,5.3248187 11.315585,4.582531 10.45448,1.1041739 10.427687,0.58266782 9.6904493,0.53472151 9.627625,0.38223691 l -0.1144753,-0.2772387 -3.3547507,0 -3.3515691,0 z m 7.4631265,0.70885234 c 0.05442,4.62373446 1.042907,4.43755286 4.019248,4.27826216 0,-0.043474 -2.370617,-2.5739896 -3.70454,-3.9537946 L 10.269872,0.81381259 z"
       id="path4036-4"
       inkscape:connector-curvature="0"
       sodipodi:nodetypes="ccssscsccsccccccccccccc" />
    <g
       id="g2035"
       style="stroke-miterlimit:10"
       transform="matrix(0.00492857,0,0,-0.00492857,4.0240072,19.318238)">
      <path
         inkscape:connector-curvature="0"
         id="path26"
         style="fill:#ffb400;stroke:none"
         d="m 719.899,2297.19 c 0,34.81 -6.429,72.81 -26.649,102 -40.54,58.51 -127.57,77.12 -188.15,40.25 -30.62,-18.65 -47.65,-51.21 -57.25,-84.64 -19.06,-66.38 -10.32,-142.13 3.009,-208.79 4.26,-21.32 8.66,-42.67 14.64,-63.6 2.16,-7.55 3.16,-18.52 8.07,-24.8 8.569,-10.98 29.49,-14.16 42.319,-12 38.49,6.47 28.96,69.85 27.65,96.8 -3.07,63.13 -21.67,124.4 -3.65,187.19 7.63,26.57 22.37,56.45 49.2,67.99 24.22,10.43 48.66,-2.33 58.25,-25.99 15.529,-38.31 11.649,-82.54 21.389,-122.4 3.31,-13.55 6.95,-26.97 13.06,-39.6 1.77,-3.65 4.21,-11.24 9.34,-10.78 12.47,1.14 30.2,21.95 39.549,29.67 30.2,24.96 61.23,51.69 96,70.16 16.36,8.69 43.279,22.76 59.99,7.98 4.259,-3.77 7.689,-8.27 10.739,-13.04 19.64,-30.77 0.14,-54.74 -12.629,-84 -16.53,-37.87 -33.469,-75.36 -57.42,-109.2 -20.59,-29.1 -48.729,-54.61 -65.18,-86.4 -10.59,-20.47 -16.58,-42.9 -12.2,-66 3.55,-18.68 18.03,-29.96 37.08,-25.58 14.26,3.28 23.92,15.5 32.05,26.78 14.49,20.12 27.95,41 42.35,61.2 27.86,39.07 60.73,75.6 84.16,117.6 28.24,50.63 41.86,107.92 41.829,165.59 -0.019,47.13 -17.109,119.16 -72,129.04 -10.329,1.85 -22.14,0.84 -32.4,-0.95 -12.749,-2.22 -25.549,-6.37 -37.199,-12.01 -31.21,-15.1 -58.2,-37.65 -81.39,-63.29 -14.469,-15.98 -27.429,-36.08 -44.599,-49.2" />
      <path
         inkscape:connector-curvature="0"
         id="path28"
         style="fill:#cc0000;stroke:none"
         d="m 668.3,3463.03 c -43.29,-5.69 -87.29,-5.1 -130.79,-11.82 -83.329,-12.87 -163.14,-38.76 -241.189,-69.99 -28.42,-11.37 -56.46,-24.04 -84,-37.37 -10.249,-4.96 -25.88,-8.93 -34.12,-16.89 -4.289,-4.15 -3.849,-13.87 -4.37,-19.42 -1.449,-15.61 -3.399,-31.2 -4.91,-46.8 -5.829,-60.2 -9.939,-122.22 -1.319,-182.39 2.79,-19.44 8.83,-54.7 32.72,-58.43 36.739,-5.75 65.279,39.46 83.309,64.43 42.11,58.32 90.02,112.61 159.08,138.68 81.3,30.69 174.38,37.92 260.39,43.82 241.31,16.54 505.009,-27.54 682.769,-205.3 25.28,-25.28 49.21,-52.11 69.56,-81.6 79.59,-115.26 121.68,-246.32 141.95,-383.98 9.53,-64.63 16.04,-130.03 1.3,-194.39 -25.58,-111.66 -92.65,-208.85 -169.72,-291.59 -52.75,-56.63 -112.11,-107.82 -173.89,-154.35 -34.49,-25.97 -73.17,-48 -105.6,-76.39 -37.35,-32.7 -68.42,-73.62 -92.03,-117.25 -63.54,-117.48 -80.579,-258.84 -61.89,-389.98 3.83,-26.88 7.29,-53.89 13.38,-80.4 1.82,-7.93 2.14,-21.56 7.27,-28.04 9.6,-12.12 35.8,-18.79 50.47,-19.5 15.3,-0.74 25.48,11.02 29.23,24.74 6.42,23.51 2.58,49.55 -1.14,73.2 -7.62,48.44 -14.6,97.22 -12.44,146.39 3.98,90.79 39.08,175.39 102,241.19 63.99,66.92 150.42,105.51 223.14,161.57 146.56,112.98 277.86,265.41 328.28,446.8 18.02,64.87 23.99,133.61 15.76,200.39 -10.4,84.47 -41.29,168.84 -70.39,248.39 -88.69,242.48 -240.83,473.08 -482.44,584.01 -95.89,44.02 -196.16,64.06 -299.99,78.52 -48.69,6.78 -97.37,10.94 -146.391,13.09 -27.229,1.19 -56.849,4.21 -83.999,0.64" />
      <path
         inkscape:connector-curvature="0"
         id="path30"
         style="fill:#cc0000;stroke:none"
         d="m 290.31,1893.49 c -47.09,-6.74 -60.78,-44.49 -52.08,-87.08 11.14,-54.5 54,-96.07 96.469,-128.81 108.81,-83.88 249.35,-129.22 386.38,-123.22 53.47,2.34 111.72,11.18 160.79,33.87 26.31,12.16 53.83,55.97 18,74.72 -4.91,2.57 -11.329,4.16 -16.8,5.06 -15.649,2.56 -33.17,-4.1 -47.999,-8.36 -26.15,-7.51 -52.28,-15.2 -79.2,-19.52 -80.43,-12.92 -167.4,5.46 -233.99,53.12 -53.829,38.54 -97.369,89.36 -138.47,140.74 -25.159,31.45 -47.899,65.96 -93.119,59.48" />
      <path
         inkscape:connector-curvature="0"
         id="path32"
         style="fill:#cc0000;stroke:none"
         d="m 229.11,1627.11 c -11.98,-1.58 -25.72,-1.13 -35.98,-8.66 -21.4,-15.71 2.17,-47.31 13.43,-61.63 32.649,-41.49 75.639,-75.93 118.54,-106.29 119.599,-84.61 255.079,-133.42 400.78,-143.41 41.889,-2.87 84.559,0.11 125.989,7.01 15.149,2.53 34,3.67 48,10.21 39.619,18.53 28.159,93.38 -7.2,110.02 -15.44,7.26 -40.21,-2.33 -56.4,-4.58 -38.29,-5.34 -76.69,-5.88 -115.2,-4.94 -100.93,2.47 -208.45,33.56 -296.39,82.62 -34.57,19.3 -66.319,42.78 -96,68.91 -18.05,15.89 -36.59,41.89 -59.999,49.92 -10.9,3.74 -28.261,2.32 -39.601,0.83" />
      <path
         inkscape:connector-curvature="0"
         id="path34"
         style="fill:#cc0000;stroke:none"
         d="m 253.109,1402.7 c -17.059,-1.91 -29.919,-10.81 -41.139,-23.47 -7.73,-8.72 -15.07,-16.6 -19.51,-27.6 -24.48,-60.56 40.78,-117.73 85.85,-146.33 50.159,-31.82 104.959,-55.41 160.789,-75.28 125.92,-44.82 273.61,-73.51 404.38,-33.44 38.87,11.9 77.29,33.66 105.55,63.07 15.919,16.57 26.849,41.66 -2.35,52.27 -17.3,6.28 -38.31,-9.71 -54,-16.03 -37.04,-14.94 -75.44,-26.28 -115.2,-31.09 -52.37,-6.35 -99.52,5.18 -149.99,17.81 -43.11,10.78 -86.709,21.56 -128.39,37.1 -35.56,13.26 -70.88,29.01 -101.999,51.03 -9.3,6.58 -20.44,12.44 -28.06,21.01 -24.91,28.03 -43.63,60.83 -70.34,87.49 -11.54,11.52 -27.939,25.44 -45.6,23.47" />
    </g>
    <path
       style="fill:#ffffff;fill-opacity:1;fill-rule:nonzero;stroke:none"
       d="M 3.130367,0.51351848 2.9223422,1.0603304 C 2.2936583,2.7148263 2.3842596,5.7628886 2.5425014,9.1376914 2.7168373,12.855663 2.4550998,14.629962 2.524119,14.69199 c 0.1469514,0.13207 1.1491533,0.452562 1.8900662,0.603276 0.4270671,0.08688 1.3471363,0.192637 2.0445997,0.234772 0.6974634,0.04212 1.5899167,0.06221 1.982191,0.04458 2.5655521,-0.115304 4.6391261,-0.204432 4.7217351,-0.255484 0.06585,-0.04068 0.59441,-0.258265 0.52433,-0.868532 -0.166382,-1.450125 -0.24243,-3.511408 0.32304,-7.3753392 0.08037,-0.5491931 0.169052,-1.1128929 0.196139,-1.254102 C 14.25436,5.5702279 14.24718,5.565672 13.938755,5.65771 13.764266,5.709779 13.329885,5.724956 12.966977,5.690411 12.352318,5.631888 12.316816,5.637088 12.381543,5.8033423 c 0.36176,0.9291478 0.397561,1.8294188 0.104019,2.5319754 -0.231965,0.5551711 -0.968405,1.435334 -1.533448,1.8306293 -1.314849,0.919838 -1.4650996,1.157943 -1.4650996,2.332864 0,0.742231 -0.00707,0.769252 -0.2110014,0.739979 C 9.1076537,13.214643 9.0471303,13.121541 8.9848126,12.78113 8.8826995,12.223387 8.9731959,11.423256 9.1928374,10.926724 9.2969017,10.691464 9.5751278,10.35925 9.8793246,10.109478 10.682591,9.4499167 11.471358,8.6142165 11.695091,8.1837513 11.93504,7.7220858 11.960167,6.732894 11.748579,6.0291964 L 11.617824,5.6012528 10.726281,5.5061556 C 10.235639,5.4538549 9.8210571,5.3647273 9.8020526,5.3070481 9.7830355,5.2493605 9.7354724,4.8642176 9.698038,4.4511652 L 9.6296846,3.6992968 9.0590973,3.577456 C 8.4457881,3.4460157 7.0193716,3.4827763 6.4439145,3.6458054 6.2338846,3.7053078 5.9483532,3.9237878 5.6682749,4.2371954 5.2852858,4.6657592 5.2037816,4.7164518 5.0739123,4.6086751 4.9120078,4.4743038 4.8563004,3.4256966 4.9996181,3.2000355 5.0407939,3.1351836 5.3518617,2.9677145 5.6890778,2.8285641 6.1783426,2.6266578 6.5029663,2.569053 7.2997932,2.5343512 8.2127973,2.4945805 9.0671753,2.5804426 9.5227018,2.7572382 9.6913036,2.822677 9.6994603,2.7763383 9.6564323,1.9310796 9.6313791,1.4391399 9.5635845,0.91888146 9.5048713,0.77504707 l -0.1069872,-0.26152035 -3.1352511,0 -3.1322785,0 z m 6.97482,0.66865682 0.02079,1.2570745 c 0.01112,0.6922131 0.02187,1.5702963 0.02377,1.9495026 l 0.0029,0.6894556 0.594359,0.011865 c 0.3269,0.00611 0.872522,0.042023 1.212496,0.080236 0.771994,0.086776 1.901956,0.1148501 1.901956,0.047551 0,-0.04101 -2.215508,-2.4280435 -3.462153,-3.7296136 L 10.105096,1.1821506 z M 6.9164444,7.3813514 c 0.2428135,-0.015338 0.4977193,0.098917 0.6508223,0.3506769 L 7.7336899,8.0054342 8.0041192,7.7736341 C 8.3569003,7.4701855 8.7271274,7.5065409 8.895663,7.8598139 9.0773577,8.2406781 8.9542064,8.7112609 8.4944715,9.3813771 8.0932633,9.9661824 7.9617735,10.081978 7.8406727,9.960878 7.7164299,9.8366351 7.7778547,9.6457868 8.0962482,9.1466045 8.6973989,8.2041036 8.6208557,7.892118 7.9119945,8.3917678 7.6835968,8.5527588 7.4743192,8.6506588 7.4483942,8.6087099 7.4224732,8.5667569 7.3736162,8.3502571 7.338439,8.1302474 7.2845259,7.7930933 7.2433872,7.7345874 7.0739462,7.7587719 6.890755,7.7848996 6.8701589,7.8571599 6.8451185,8.5641317 6.8172545,9.3501769 6.6845947,9.6017961 6.4498675,9.3189685 6.2959749,9.1335365 6.2195599,8.1139838 6.33694,7.8122675 6.4412272,7.5442069 6.6736311,7.3967304 6.9164444,7.3813514 z M 5.5523831,10.124328 c 0.1611108,0.0053 0.3929523,0.157952 0.6597436,0.454687 0.5764081,0.641107 1.106237,0.847292 1.7771346,0.692429 0.2698959,-0.06229 0.5224783,-0.07485 0.5676147,-0.02973 0.1741994,0.174199 -0.050069,0.389132 -0.5081744,0.487375 -0.5734934,0.122992 -0.5735638,0.123785 -1.224386,-0.05052 -0.9091055,-0.24348 -1.5715901,-0.814004 -1.5037327,-1.292732 0.025508,-0.179991 0.106495,-0.26565 0.2318002,-0.26152 z m -0.2912323,1.265988 c 0.1251977,-0.01195 0.2832947,0.06496 0.5052061,0.240717 0.6116762,0.484462 1.2054228,0.689348 2.0564854,0.707291 l 0.7607814,0.01488 0,0.285292 0,0.285296 -0.713235,0.02377 C 7.2959443,12.966416 7.0483518,12.924828 6.6014327,12.739536 5.9664195,12.476242 5.3518286,12.073739 5.1541639,11.791537 4.9741188,11.534481 4.9831435,11.474429 5.210628,11.402226 c 0.016578,-0.0052 0.032618,-0.0102 0.050523,-0.01191 z m 0.095097,1.117399 c 0.1290341,0.0054 0.2916251,0.125031 0.5081744,0.35959 0.2667375,0.288905 0.4941266,0.414565 1.0371599,0.5795 0.6703602,0.203606 0.8234383,0.208624 1.6107155,0.0416 0.4783302,-0.101471 0.4112086,0.207036 -0.095093,0.436856 -0.4765567,0.216318 -1.0627171,0.227711 -1.7771428,0.03568 C 5.5907562,13.678868 4.890461,13.101819 5.1066134,12.697927 5.1759794,12.568315 5.2558842,12.503565 5.3562482,12.507732 z"
       id="path4036"
       inkscape:connector-curvature="0"
       sodipodi:nodetypes="ccscccsccscsccssscccsscccccccssccccccccccccccccsscccccccsssssccccssccsccssccccscccccccccccscscscc" />
  </g>
</svg>
