<?xml version="1.0" encoding="UTF-8" standalone="no"?>
<!-- Created with Inkscape (http://www.inkscape.org/) -->

<svg
   xmlns:dc="http://purl.org/dc/elements/1.1/"
   xmlns:cc="http://creativecommons.org/ns#"
   xmlns:rdf="http://www.w3.org/1999/02/22-rdf-syntax-ns#"
   xmlns:svg="http://www.w3.org/2000/svg"
   xmlns="http://www.w3.org/2000/svg"
   xmlns:sodipodi="http://sodipodi.sourceforge.net/DTD/sodipodi-0.dtd"
   xmlns:inkscape="http://www.inkscape.org/namespaces/inkscape"
   width="384"
   height="384"
   id="svg3846"
   version="1.1"
   inkscape:version="0.48.2 r9819"
   sodipodi:docname="logo.svg"
   inkscape:export-filename="/home/mihai/programs/src/git/xmpplist/static/img/logo.png"
   inkscape:export-xdpi="60"
   inkscape:export-ydpi="60">
  <sodipodi:namedview
     id="base"
     pagecolor="#ffffff"
     bordercolor="#666666"
     borderopacity="1.0"
     inkscape:pageopacity="0.0"
     inkscape:pageshadow="2"
     inkscape:zoom="1.4142136"
     inkscape:cx="384.43436"
     inkscape:cy="276.34075"
     inkscape:document-units="px"
     inkscape:current-layer="layer1"
     showgrid="false"
     inkscape:window-width="1920"
     inkscape:window-height="1147"
     inkscape:window-x="0"
     inkscape:window-y="0"
     inkscape:window-maximized="1" />
  <defs
     id="defs3848">
    <filter
       inkscape:collect="always"
       id="filter4029"
       x="-0.15053044"
       width="1.3010609"
       y="-0.09976563"
       height="1.1995313">
      <feGaussianBlur
         inkscape:collect="always"
         stdDeviation="99.882532"
         id="feGaussianBlur4031" />
    </filter>
    <filter
       inkscape:collect="always"
       id="filter4162">
      <feGaussianBlur
         inkscape:collect="always"
         stdDeviation="2.7373966"
         id="feGaussianBlur4164" />
    </filter>
  </defs>
  <metadata
     id="metadata3851">
    <rdf:RDF>
      <cc:Work
         rdf:about="">
        <dc:format>image/svg+xml</dc:format>
        <dc:type
           rdf:resource="http://purl.org/dc/dcmitype/StillImage" />
        <dc:title></dc:title>
      </cc:Work>
    </rdf:RDF>
  </metadata>
  <g
     inkscape:label="Layer 1"
     inkscape:groupmode="layer"
     id="layer1"
     transform="translate(0,-668.36218)">
    <g
       id="g2035"
       style="stroke-miterlimit:10"
       transform="matrix(0.09403008,0,0,-0.09403008,-209.70074,709.5508)">
      <path
         inkscape:connector-curvature="0"
         id="path26"
         style="fill:#ffb400;stroke:none"
         d="m 719.899,2297.19 c 0,34.81 -6.429,72.81 -26.649,102 -40.54,58.51 -127.57,77.12 -188.15,40.25 -30.62,-18.65 -47.65,-51.21 -57.25,-84.64 -19.06,-66.38 -10.32,-142.13 3.009,-208.79 4.26,-21.32 8.66,-42.67 14.64,-63.6 2.16,-7.55 3.16,-18.52 8.07,-24.8 8.569,-10.98 29.49,-14.16 42.319,-12 38.49,6.47 28.96,69.85 27.65,96.8 -3.07,63.13 -21.67,124.4 -3.65,187.19 7.63,26.57 22.37,56.45 49.2,67.99 24.22,10.43 48.66,-2.33 58.25,-25.99 15.529,-38.31 11.649,-82.54 21.389,-122.4 3.31,-13.55 6.95,-26.97 13.06,-39.6 1.77,-3.65 4.21,-11.24 9.34,-10.78 12.47,1.14 30.2,21.95 39.549,29.67 30.2,24.96 61.23,51.69 96,70.16 16.36,8.69 43.279,22.76 59.99,7.98 4.259,-3.77 7.689,-8.27 10.739,-13.04 19.64,-30.77 0.14,-54.74 -12.629,-84 -16.53,-37.87 -33.469,-75.36 -57.42,-109.2 -20.59,-29.1 -48.729,-54.61 -65.18,-86.4 -10.59,-20.47 -16.58,-42.9 -12.2,-66 3.55,-18.68 18.03,-29.96 37.08,-25.58 14.26,3.28 23.92,15.5 32.05,26.78 14.49,20.12 27.95,41 42.35,61.2 27.86,39.07 60.73,75.6 84.16,117.6 28.24,50.63 41.86,107.92 41.829,165.59 -0.019,47.13 -17.109,119.16 -72,129.04 -10.329,1.85 -22.14,0.84 -32.4,-0.95 -12.749,-2.22 -25.549,-6.37 -37.199,-12.01 -31.21,-15.1 -58.2,-37.65 -81.39,-63.29 -14.469,-15.98 -27.429,-36.08 -44.599,-49.2" />
      <path
         inkscape:connector-curvature="0"
         id="path28"
         style="fill:#cc0000;stroke:none"
         d="m 668.3,3463.03 c -43.29,-5.69 -87.29,-5.1 -130.79,-11.82 -83.329,-12.87 -163.14,-38.76 -241.189,-69.99 -28.42,-11.37 -56.46,-24.04 -84,-37.37 -10.249,-4.96 -25.88,-8.93 -34.12,-16.89 -4.289,-4.15 -3.849,-13.87 -4.37,-19.42 -1.449,-15.61 -3.399,-31.2 -4.91,-46.8 -5.829,-60.2 -9.939,-122.22 -1.319,-182.39 2.79,-19.44 8.83,-54.7 32.72,-58.43 36.739,-5.75 65.279,39.46 83.309,64.43 42.11,58.32 90.02,112.61 159.08,138.68 81.3,30.69 174.38,37.92 260.39,43.82 241.31,16.54 505.009,-27.54 682.769,-205.3 25.28,-25.28 49.21,-52.11 69.56,-81.6 79.59,-115.26 121.68,-246.32 141.95,-383.98 9.53,-64.63 16.04,-130.03 1.3,-194.39 -25.58,-111.66 -92.65,-208.85 -169.72,-291.59 -52.75,-56.63 -112.11,-107.82 -173.89,-154.35 -34.49,-25.97 -73.17,-48 -105.6,-76.39 -37.35,-32.7 -68.42,-73.62 -92.03,-117.25 -63.54,-117.48 -80.579,-258.84 -61.89,-389.98 3.83,-26.88 7.29,-53.89 13.38,-80.4 1.82,-7.93 2.14,-21.56 7.27,-28.04 9.6,-12.12 35.8,-18.79 50.47,-19.5 15.3,-0.74 25.48,11.02 29.23,24.74 6.42,23.51 2.58,49.55 -1.14,73.2 -7.62,48.44 -14.6,97.22 -12.44,146.39 3.98,90.79 39.08,175.39 102,241.19 63.99,66.92 150.42,105.51 223.14,161.57 146.56,112.98 277.86,265.41 328.28,446.8 18.02,64.87 23.99,133.61 15.76,200.39 -10.4,84.47 -41.29,168.84 -70.39,248.39 -88.69,242.48 -240.83,473.08 -482.44,584.01 -95.89,44.02 -196.16,64.06 -299.99,78.52 -48.69,6.78 -97.37,10.94 -146.391,13.09 -27.229,1.19 -56.849,4.21 -83.999,0.64" />
      <path
         inkscape:connector-curvature="0"
         id="path30"
         style="fill:#cc0000;stroke:none"
         d="m 290.31,1893.49 c -47.09,-6.74 -60.78,-44.49 -52.08,-87.08 11.14,-54.5 54,-96.07 96.469,-128.81 108.81,-83.88 249.35,-129.22 386.38,-123.22 53.47,2.34 111.72,11.18 160.79,33.87 26.31,12.16 53.83,55.97 18,74.72 -4.91,2.57 -11.329,4.16 -16.8,5.06 -15.649,2.56 -33.17,-4.1 -47.999,-8.36 -26.15,-7.51 -52.28,-15.2 -79.2,-19.52 -80.43,-12.92 -167.4,5.46 -233.99,53.12 -53.829,38.54 -97.369,89.36 -138.47,140.74 -25.159,31.45 -47.899,65.96 -93.119,59.48" />
      <path
         inkscape:connector-curvature="0"
         id="path32"
         style="fill:#cc0000;stroke:none"
         d="m 229.11,1627.11 c -11.98,-1.58 -25.72,-1.13 -35.98,-8.66 -21.4,-15.71 2.17,-47.31 13.43,-61.63 32.649,-41.49 75.639,-75.93 118.54,-106.29 119.599,-84.61 255.079,-133.42 400.78,-143.41 41.889,-2.87 84.559,0.11 125.989,7.01 15.149,2.53 34,3.67 48,10.21 39.619,18.53 28.159,93.38 -7.2,110.02 -15.44,7.26 -40.21,-2.33 -56.4,-4.58 -38.29,-5.34 -76.69,-5.88 -115.2,-4.94 -100.93,2.47 -208.45,33.56 -296.39,82.62 -34.57,19.3 -66.319,42.78 -96,68.91 -18.05,15.89 -36.59,41.89 -59.999,49.92 -10.9,3.74 -28.261,2.32 -39.601,0.83" />
      <path
         inkscape:connector-curvature="0"
         id="path34"
         style="fill:#cc0000;stroke:none"
         d="m 253.109,1402.7 c -17.059,-1.91 -29.919,-10.81 -41.139,-23.47 -7.73,-8.72 -15.07,-16.6 -19.51,-27.6 -24.48,-60.56 40.78,-117.73 85.85,-146.33 50.159,-31.82 104.959,-55.41 160.789,-75.28 125.92,-44.82 273.61,-73.51 404.38,-33.44 38.87,11.9 77.29,33.66 105.55,63.07 15.919,16.57 26.849,41.66 -2.35,52.27 -17.3,6.28 -38.31,-9.71 -54,-16.03 -37.04,-14.94 -75.44,-26.28 -115.2,-31.09 -52.37,-6.35 -99.52,5.18 -149.99,17.81 -43.11,10.78 -86.709,21.56 -128.39,37.1 -35.56,13.26 -70.88,29.01 -101.999,51.03 -9.3,6.58 -20.44,12.44 -28.06,21.01 -24.91,28.03 -43.63,60.83 -70.34,87.49 -11.54,11.52 -27.939,25.44 -45.6,23.47" />
    </g>
    <path
       style="fill:#000000;fill-opacity:0.05472639;fill-rule:nonzero;stroke:none"
       d="m 95.719354,682.86586 -4.21875,11.0625 c -12.83416,33.46286 -13.88665,97.49335 -10.65625,165.75 3.559,75.19723 1.09091,108.71412 2.5,109.96872 2.99992,2.6712 23.468516,9.1392 38.593746,12.1875 8.71823,1.7571 27.51182,3.8978 41.75,4.75 14.23819,0.8509 32.46071,1.2612 40.46875,0.9063 52.37387,-2.3322 92.71988,-4.2175 94.40625,-5.25 1.34427,-0.8222 14.80493,-5.3132 13.375,-17.6563 -3.39656,-29.32924 -5.63753,-70.85052 5.90625,-148.99997 1.64076,-11.10755 3.44703,-22.51913 4,-25.375 0.973,-5.02322 -2.08302,-15.28106 -8.25,-13.6875 -7.05184,-8.14242 -46.35879,-50.03273 -69.46875,-73.9375 l -2.90625,-3 c -2.40841,-7.76229 -14.24751,-8.7768 -15.34375,-11.4375 l -2.1875,-5.28125 -64,0 -63.968746,0 z m 6.187496,7.8125 59.75,0 59.8125,0 2.0625,4.96875 c 1.12012,2.74407 2.39708,12.67699 2.875,22.0625 0.82091,16.12636 0.68544,16.99775 -2.53125,15.75 -8.69079,-3.3729 -25.01869,-5.00933 -42.4375,-4.25 -15.20232,0.66203 -21.38427,1.77304 -30.71875,5.625 -6.4336,2.65479 -12.3706,5.85556 -13.15625,7.09375 -2.73438,4.30527 -1.65141,24.31121 1.4375,26.875 2.47772,2.05609 4.00562,1.08257 11.3125,-7.09375 5.34351,-5.9794 10.80542,-10.14608 14.8125,-11.28125 10.97889,-3.11171 38.20519,-3.82019 49.90625,-1.3125 l 10.875,2.3125 1.3125,14.34375 c 0.7142,7.8804 1.60588,15.24291 1.96875,16.34375 0.36257,1.10045 8.26425,2.81469 17.625,3.8125 l 17.03125,1.8125 2.5,8.15625 c 4.03676,13.42539 3.54663,32.28594 -1.03125,41.09375 -4.26851,8.21275 -19.33107,24.16654 -34.65625,36.75 -5.80364,4.76526 -11.10834,11.10533 -13.09375,15.59375 -4.1905,9.47327 -5.91693,24.73412 -3.96875,35.375 1.18891,6.49455 2.35044,8.25704 5.5625,8.71875 3.89014,0.55843 4.03125,0.0669 4.03125,-14.09375 0,-22.4158 2.85205,-26.98202 27.9375,-44.53125 10.78021,-7.54177 24.82444,-24.3144 29.25,-34.90625 5.60036,-13.40384 4.93312,-30.58565 -1.96875,-48.3125 -1.2349,-3.17143 -0.57056,-3.27235 11.15625,-2.15625 6.92377,0.66011 15.23349,0.36899 18.5625,-0.625 5.8843,-1.756 6.0122,-1.66238 5.09375,3.125 -0.51677,2.69408 -2.21666,13.45974 -3.75,23.9375 -10.78836,73.71826 -9.33058,113.02129 -6.15625,140.6875 1.33703,11.64312 -8.74368,15.81722 -10,16.59372 -1.57606,0.9741 -41.14668,2.6751 -90.09375,4.875 -7.48403,0.3358 -24.50589,-0.072 -37.8125,-0.875 -13.30659,-0.804 -30.85217,-2.8108 -39,-4.4687 -14.13556,-2.8755 -33.258886,-8.9803 -36.062496,-11.50002 -1.3168,-1.18342 3.66983,-35.03519 0.34375,-105.96875 -3.01902,-64.38636 -4.7444,-122.5595 7.25,-154.125 l 3.968746,-10.40625 z m 133.0625,12.75 5.625,5.84375 c 23.78421,24.8321 66.03125,70.37402 66.03125,71.15625 0,1.28304 -21.55271,0.74977 -36.28125,-0.90625 -6.48621,-0.7288 -16.88822,-1.41678 -23.125,-1.53125 l -11.34375,-0.25 -0.0625,-13.15625 c -0.0362,-7.2346 -0.22534,-23.98111 -0.4375,-37.1875 l -0.40625,-23.96875 z m -60.84375,118.25 c -4.63252,0.29343 -9.0416,3.10455 -11.03125,8.21875 -2.23944,5.7562 -0.77981,25.21226 2.15625,28.75 4.47825,5.39599 6.99972,0.62171 7.53125,-14.375 0.47773,-13.48779 0.87997,-14.87705 4.375,-15.375 3.23272,-0.46132 4.00273,0.66122 5.03125,7.09375 0.67109,4.19747 1.59923,8.32371 2.09375,9.125 0.4946,0.80035 4.48624,-1.08479 8.84375,-4.15625 13.52406,-9.53261 15.00035,-3.5753 3.53125,14.40625 -6.07452,9.52383 -7.24538,13.16092 -4.875,15.53125 2.31044,2.31041 4.81425,0.0947 12.46875,-11.0625 8.77101,-12.78493 11.12273,-21.73354 7.65625,-29 -3.21543,-6.74027 -10.30068,-7.44545 -17.03125,-1.65625 l -5.15625,4.40625 -3.15625,-5.21875 c -2.92099,-4.80359 -7.80495,-6.9794 -12.4375,-6.6875 z m -26,52.34375 c -2.39064,-0.0788 -3.9508,1.56605 -4.4375,5 -1.29461,9.13348 11.34306,20.011 28.6875,24.65625 12.41675,3.32501 12.43356,3.31523 23.375,0.96875 8.73998,-1.87428 13.01097,-5.98901 9.6875,-9.3125 -0.86113,-0.86044 -5.69451,-0.62609 -10.84375,0.5625 -12.79975,2.9547 -22.9092,-0.95622 -33.90625,-13.1875 -5.09,-5.66138 -9.48873,-8.5921 -12.5625,-8.6875 z m -5.5625,24.15625 c -0.34151,0.0324 -0.65243,0.12335 -0.96875,0.21875 -4.33999,1.37748 -4.4975,2.53317 -1.0625,7.4375 3.77117,5.38397 15.47861,13.07036 27.59375,18.09375 8.52658,3.53564 13.25915,4.32933 24.21875,3.96875 l 13.59375,-0.46875 0,-5.4375 0,-5.4375 -14.5,-0.28125 c -16.23705,-0.34227 -27.5801,-4.257 -39.25,-13.5 -4.23376,-3.3523 -7.2364,-4.82079 -9.625,-4.59375 z m 1.8125,21.3125 c -1.9148,-0.0794 -3.42652,1.15222 -4.75,3.625 -4.12386,7.70565 9.23074,18.71225 29.25,24.09375 13.63023,3.66328 24.81422,3.47083 33.90625,-0.65625 9.65945,-4.38464 10.93836,-10.27984 1.8125,-8.34375 -15.02014,3.18651 -17.96049,3.07189 -30.75,-0.8125 -10.36029,-3.14682 -14.69227,-5.51944 -19.78125,-11.03125 -4.13144,-4.47506 -7.22571,-6.7796 -9.6875,-6.875 z"
       id="path4036-4"
       inkscape:connector-curvature="0" />
    <path
       style="fill:#ffffff;fill-opacity:0.10447761;fill-rule:nonzero;stroke:none;filter:url(#filter4162)"
       d="m 91.06032,682.86443 -4.21875,11.0625 c -12.83416,33.46286 -13.88665,97.49335 -10.65625,165.75 3.559,75.19725 1.09091,108.71415 2.5,109.96875 2.99992,2.6712 23.46852,9.1392 38.59375,12.1875 8.71823,1.7571 27.51182,3.8978 41.75,4.75 14.23819,0.8509 32.46072,1.2612 40.46876,0.9063 52.37387,-2.3322 92.71988,-4.2175 94.40625,-5.25 1.34427,-0.8222 14.80493,-5.3132 13.375,-17.6563 -3.39656,-29.3293 -5.63753,-70.8505 5.90625,-149 1.64076,-11.10755 3.44703,-22.51913 4,-25.375 0.973,-5.02322 -2.08302,-15.28106 -8.25,-13.6875 -7.05184,-8.14242 -46.35879,-50.03273 -69.46875,-73.9375 l -2.90625,-3 c -2.40841,-7.76229 -14.24751,-8.7768 -15.34375,-11.4375 l -2.1875,-5.28125 -64.00001,0 -63.96875,0 z m 6.1875,7.8125 59.75,0 59.81251,0 2.0625,4.96875 c 1.12012,2.74407 2.39708,12.67699 2.875,22.0625 0.82091,16.12636 0.68544,16.99775 -2.53125,15.75 -8.69079,-3.3729 -25.01869,-5.00933 -42.4375,-4.25 -15.20233,0.66203 -21.38428,1.77304 -30.71876,5.625 -6.4336,2.65479 -12.3706,5.85556 -13.15625,7.09375 -2.73438,4.30527 -1.65141,24.31121 1.4375,26.875 2.47772,2.05609 4.00562,1.08257 11.3125,-7.09375 5.34351,-5.9794 10.80542,-10.14608 14.8125,-11.28125 10.97889,-3.11171 38.2052,-3.82019 49.90626,-1.3125 l 10.875,2.3125 1.3125,14.34375 c 0.7142,7.8804 1.60588,15.24291 1.96875,16.34375 0.36257,1.10045 8.26425,2.81469 17.625,3.8125 l 17.03125,1.8125 2.5,8.15625 c 4.03676,13.42539 3.54663,32.28594 -1.03125,41.09375 -4.26851,8.21275 -19.33107,24.16654 -34.65625,36.75005 -5.80364,4.7652 -11.10834,11.1053 -13.09375,15.5937 -4.1905,9.4733 -5.91693,24.7341 -3.96875,35.375 1.18891,6.4946 2.35044,8.257 5.5625,8.7188 3.89014,0.5584 4.03125,0.067 4.03125,-14.0938 0,-22.4158 2.85205,-26.982 27.9375,-44.5312 10.78021,-7.54182 24.82444,-24.31445 29.25,-34.9063 5.60036,-13.40384 4.93312,-30.58565 -1.96875,-48.3125 -1.2349,-3.17143 -0.57056,-3.27235 11.15625,-2.15625 6.92377,0.66011 15.23349,0.36899 18.5625,-0.625 5.8843,-1.756 6.0122,-1.66238 5.09375,3.125 -0.51677,2.69408 -2.21666,13.45974 -3.75,23.9375 -10.78836,73.71825 -9.33058,113.02125 -6.15625,140.68755 1.33703,11.6431 -8.74368,15.8172 -10,16.5937 -1.57606,0.9741 -41.14668,2.6751 -90.09375,4.875 -7.48403,0.3358 -24.5059,-0.072 -37.81251,-0.875 -13.30659,-0.804 -30.85217,-2.8108 -39,-4.4687 -14.13556,-2.8755 -33.25889,-8.9803 -36.0625,-11.5 -1.3168,-1.1835 3.66983,-35.0352 0.34375,-105.9688 -3.01902,-64.38636 -4.7444,-122.5595 7.25,-154.125 l 3.96875,-10.40625 z m 133.06251,12.75 5.625,5.84375 c 23.78421,24.8321 66.03125,70.37402 66.03125,71.15625 0,1.28304 -21.55271,0.74977 -36.28125,-0.90625 -6.48621,-0.7288 -16.88822,-1.41678 -23.125,-1.53125 l -11.34375,-0.25 -0.0625,-13.15625 c -0.0362,-7.2346 -0.22534,-23.98111 -0.4375,-37.1875 l -0.40625,-23.96875 z m -60.84376,118.25 c -4.63252,0.29343 -9.0416,3.10455 -11.03125,8.21875 -2.23944,5.7562 -0.77981,25.21226 2.15625,28.75 4.47825,5.39599 6.99972,0.62171 7.53125,-14.375 0.47773,-13.48779 0.87997,-14.87705 4.375,-15.375 3.23273,-0.46132 4.00274,0.66122 5.03126,7.09375 0.67109,4.19747 1.59923,8.32371 2.09375,9.125 0.4946,0.80035 4.48624,-1.08479 8.84375,-4.15625 13.52406,-9.53261 15.00035,-3.5753 3.53125,14.40625 -6.07452,9.52383 -7.24538,13.16092 -4.875,15.53125 2.31044,2.3104 4.81425,0.095 12.46875,-11.0625 8.77101,-12.78493 11.12273,-21.73354 7.65625,-29 -3.21543,-6.74027 -10.30068,-7.44545 -17.03125,-1.65625 l -5.15625,4.40625 -3.15625,-5.21875 c -2.92099,-4.80359 -7.80496,-6.9794 -12.43751,-6.6875 z m -26,52.34375 c -2.39064,-0.079 -3.9508,1.5661 -4.4375,5 -1.29461,9.1335 11.34306,20.011 28.6875,24.6563 12.41676,3.325 12.43357,3.3152 23.37501,0.9687 8.73998,-1.8743 13.01097,-5.989 9.6875,-9.3125 -0.86113,-0.8604 -5.69451,-0.6261 -10.84375,0.5625 -12.79975,2.9547 -22.90921,-0.9562 -33.90626,-13.1875 -5.09,-5.6614 -9.48873,-8.5921 -12.5625,-8.6875 z m -5.5625,24.1563 c -0.34151,0.032 -0.65243,0.1233 -0.96875,0.2187 -4.33999,1.3775 -4.4975,2.5332 -1.0625,7.4375 3.77117,5.384 15.47861,13.0704 27.59375,18.0938 8.52658,3.5356 13.25916,4.3293 24.21876,3.9687 l 13.59375,-0.4687 0,-5.4375 0,-5.4375 -14.5,-0.2813 c -16.23706,-0.3423 -27.58011,-4.257 -39.25001,-13.5 -4.23376,-3.3523 -7.2364,-4.8208 -9.625,-4.5937 z m 1.8125,21.3125 c -1.9148,-0.079 -3.42652,1.1522 -4.75,3.625 -4.12386,7.7056 9.23074,18.7122 29.25,24.0937 13.63024,3.6633 24.81423,3.4708 33.90626,-0.6562 9.65945,-4.3847 10.93836,-10.2799 1.8125,-8.3438 -15.02014,3.1865 -17.96049,3.0719 -30.75001,-0.8125 -10.36029,-3.1468 -14.69227,-5.5194 -19.78125,-11.0312 -4.13144,-4.4751 -7.22571,-6.7796 -9.6875,-6.875 z"
       id="path4036-4-8"
       inkscape:connector-curvature="0" />
  </g>
</svg>
